<?xml version="1.0" encoding="UTF-8"?>
<svg version="1.1"
     xmlns="http://www.w3.org/2000/svg"
     xmlns:xlink="http://www.w3.org/1999/xlink"
     width="40"
     height="40"
     viewBox="0 0 40 40">
  <defs>
    <g>
      <symbol id="c">
        <path
            d="M 4.375 -0.171875 C 4.15625 -0.0859375 3.925781 -0.0234375 3.6875 0.015625 C 3.457031 0.0546875 3.21875 0.078125 2.96875 0.078125 C 2.59375 0.078125 2.257812 0.03125 1.96875 -0.0625 C 1.6875 -0.164062 1.441406 -0.316406 1.234375 -0.515625 C 1.023438 -0.710938 0.867188 -0.957031 0.765625 -1.25 C 0.660156 -1.539062 0.609375 -1.878906 0.609375 -2.265625 C 0.609375 -2.628906 0.664062 -2.960938 0.78125 -3.265625 C 0.894531 -3.566406 1.054688 -3.820312 1.265625 -4.03125 C 1.484375 -4.25 1.738281 -4.414062 2.03125 -4.53125 C 2.332031 -4.644531 2.671875 -4.703125 3.046875 -4.703125 C 3.347656 -4.703125 3.597656 -4.6875 3.796875 -4.65625 C 4.003906 -4.625 4.191406 -4.582031 4.359375 -4.53125 L 4.359375 -3.453125 C 4.171875 -3.546875 3.960938 -3.617188 3.734375 -3.671875 C 3.515625 -3.722656 3.304688 -3.75 3.109375 -3.75 C 2.910156 -3.75 2.726562 -3.710938 2.5625 -3.640625 C 2.394531 -3.566406 2.253906 -3.46875 2.140625 -3.34375 C 2.035156 -3.226562 1.953125 -3.078125 1.890625 -2.890625 C 1.828125 -2.710938 1.796875 -2.519531 1.796875 -2.3125 C 1.796875 -2.09375 1.828125 -1.894531 1.890625 -1.71875 C 1.953125 -1.539062 2.039062 -1.390625 2.15625 -1.265625 C 2.28125 -1.140625 2.421875 -1.046875 2.578125 -0.984375 C 2.742188 -0.921875 2.929688 -0.890625 3.140625 -0.890625 C 3.234375 -0.890625 3.332031 -0.894531 3.4375 -0.90625 C 3.550781 -0.914062 3.660156 -0.929688 3.765625 -0.953125 C 3.867188 -0.984375 3.972656 -1.015625 4.078125 -1.046875 C 4.179688 -1.085938 4.28125 -1.128906 4.375 -1.171875 Z M 4.375 -0.171875 " />
      </symbol>
      <symbol id="l">
        <path
            d="M 2.125 -5.578125 L 0.8125 -5.578125 L 0.8125 -6.4375 L 3.265625 -6.4375 L 3.265625 -0.859375 L 4.59375 -0.859375 L 4.59375 0 L 0.65625 0 L 0.65625 -0.859375 L 2.125 -0.859375 Z M 2.125 -5.578125 " />
      </symbol>
    </g>
    <linearGradient id="backgroundGradient" gradientUnits="userSpaceOnUse" x1="3" y1="3" x2="37" y2="3">
      <stop offset="0" style="stop-color: #fe5196" />
      <stop offset="1" style="stop-color: #f77062" />
    </linearGradient>
  </defs>
  <g>
    <path
        style="fill: url(#backgroundGradient); stroke-width: 2; stroke: #ffffff"
        d="M 35.998478 20 C 35.998478 28.836304 28.836304 35.998478 20 35.998478 C 11.163696 35.998478 4.001522 28.836304 4.001522 20 C 4.001522 11.163696 11.163696 4.001522 20 4.001522 C 28.836304 4.001522 35.998478 11.163696 35.998478 20 Z M 35.998478 20 "
        transform="matrix(1.056985,0,0,1.056985,-1.139706,-1.139706)" />
    <path style="fill: #ffffff"
          d="M 11.660156 10.5 L 28.339844 10.5 C 28.980469 10.5 29.5 11.019531 29.5 11.660156 L 29.5 28.339844 C 29.5 28.980469 28.980469 29.5 28.339844 29.5 L 11.660156 29.5 C 11.019531 29.5 10.5 28.980469 10.5 28.339844 L 10.5 11.660156 C 10.5 11.019531 11.019531 10.5 11.660156 10.5 Z M 11.660156 10.5 " />
    <path style="fill: #ce3d40"
          d="M 22.652344 20.582031 L 27.820312 20.582031 L 27.820312 21.4375 L 22.652344 21.4375 Z M 25.699219 22.292969 L 27.246094 24.859375 L 26.371094 24.859375 L 25.238281 23.183594 L 24.101562 24.859375 L 23.226562 24.859375 L 24.773438 22.292969 Z M 25.699219 22.292969 " />
    <g style="fill: #50b2dd">
      <use xlink:href="#c" x="11.589844" y="21.431413" />
      <use xlink:href="#l" x="16.721143" y="21.431413" />
    </g>
  </g>
</svg>
