<?xml version="1.0" encoding="UTF-8"?>
<svg version="1.1"
     xmlns="http://www.w3.org/2000/svg"
     xmlns:xlink="http://www.w3.org/1999/xlink"
     width="16"
     height="16"
     viewBox="0 0 16 16">
  <defs>
    <g>
      <symbol id="c">
        <path
            d="M 6.96875 -0.28125 C 6.613281 -0.144531 6.25 -0.046875 5.875 0.015625 C 5.507812 0.0859375 5.125 0.125 4.71875 0.125 C 4.132812 0.125 3.609375 0.046875 3.140625 -0.109375 C 2.679688 -0.265625 2.289062 -0.5 1.96875 -0.8125 C 1.644531 -1.132812 1.394531 -1.523438 1.21875 -1.984375 C 1.050781 -2.453125 0.96875 -2.988281 0.96875 -3.59375 C 0.96875 -4.1875 1.054688 -4.722656 1.234375 -5.203125 C 1.421875 -5.679688 1.679688 -6.085938 2.015625 -6.421875 C 2.359375 -6.753906 2.769531 -7.015625 3.25 -7.203125 C 3.726562 -7.390625 4.257812 -7.484375 4.84375 -7.484375 C 5.320312 -7.484375 5.722656 -7.457031 6.046875 -7.40625 C 6.367188 -7.351562 6.660156 -7.289062 6.921875 -7.21875 L 6.921875 -5.5 C 6.628906 -5.644531 6.304688 -5.757812 5.953125 -5.84375 C 5.597656 -5.925781 5.265625 -5.96875 4.953125 -5.96875 C 4.628906 -5.96875 4.335938 -5.910156 4.078125 -5.796875 C 3.816406 -5.679688 3.59375 -5.523438 3.40625 -5.328125 C 3.226562 -5.128906 3.09375 -4.890625 3 -4.609375 C 2.90625 -4.328125 2.859375 -4.019531 2.859375 -3.6875 C 2.859375 -3.332031 2.910156 -3.015625 3.015625 -2.734375 C 3.117188 -2.453125 3.257812 -2.210938 3.4375 -2.015625 C 3.625 -1.816406 3.847656 -1.664062 4.109375 -1.5625 C 4.378906 -1.457031 4.671875 -1.40625 4.984375 -1.40625 C 5.140625 -1.40625 5.300781 -1.414062 5.46875 -1.4375 C 5.644531 -1.46875 5.816406 -1.503906 5.984375 -1.546875 C 6.160156 -1.585938 6.332031 -1.632812 6.5 -1.6875 C 6.664062 -1.738281 6.820312 -1.796875 6.96875 -1.859375 Z M 6.96875 -0.28125 " />
      </symbol>
      <symbol id="l">
        <path
            d="M 3.390625 -8.859375 L 1.296875 -8.859375 L 1.296875 -10.234375 L 5.203125 -10.234375 L 5.203125 -1.375 L 7.328125 -1.375 L 7.328125 0 L 1.046875 0 L 1.046875 -1.375 L 3.390625 -1.375 Z M 3.390625 -8.859375 " />
      </symbol>
    </g>
  </defs>
  <g>
    <path style="fill: #ce3d40"
          d="M 8.179688 11.371094 L 14.421875 11.371094 L 14.421875 12.262344 L 8.179688 12.262344 Z M 11.859375 12.933594 L 13.726562 15.273438 L 12.671875 15.273438 L 11.304688 13.75 L 9.929688 15.273438 L 8.875 15.273438 L 10.742188 12.933594 Z M 11.859375 12.933594 " />
    <g style="fill: #50b2dd">
      <use xlink:href="#c" x="0.277344" y="11.192795" />
      <use xlink:href="#l" x="7.105729" y="11.192795" />
    </g>
  </g>
</svg>
